# xmcd
#
# Track frame offsets:
#	150
#	17645
#	33028
#	52677
#	69259
#	88609
#	106417
#	122405
#	142264
#	157530
#	177515
#	195596
#	211720
#	231262
#
# Disc length: 3343 seconds
#
# Revision: 1
# Processed by: cddbd v1.5.2PL0 Copyright (c) Steve Scherf et al.
# Submitted via: audiograbber 1.83.01
#
DISCID=a70d0d0e
DTITLE=Wolfgang Ambros - Jö schau... - Das Beste
DYEAR=2014
DGENRE=Austro Pop
TTITLE0=Ruaf mi net an (Live)
TTITLE1=Hoit do is a Spoit (Live)
TTITLE2=Du schwarzer Afghane (Live)
TTITLE3=Du lebst
TTITLE4=Wieder verliebt
TTITLE5=Nach mir die Sintflut (Shiver Me Timbers)
TTITLE6=Da Hofa (Live)
TTITLE7=Oid wurdn
TTITLE8=Er is vom Land (Live)
TTITLE9=Schaffnerlos (Live)
TTITLE10=Martha
TTITLE11=Die Blume aus dem Gemeindebau (Live)
TTITLE12=Die Sunn geht boid auf (Ol' 55)
TTITLE13=Ka Überraschung (No Surprises)
EXTD=
EXTT0=
EXTT1=
EXTT2=
EXTT3=
EXTT4=
EXTT5=
EXTT6=
EXTT7=
EXTT8=
EXTT9=
EXTT10=
EXTT11=
EXTT12=
EXTT13=
PLAYORDER=
